# xmcd
#
# Track frame offsets:
#  150
#  12660
#  26497
#  45584
#  72239
#  90073
#  102330
#  115129
#  149412
#  181272
#  200478
#  219744
#  257515
#  286676
#  302309
#  319859
#  323918
#
# Disc length: 4552 seconds
#
# Revision: 0
# Processed by: cddbd v1.5.1PL0 Copyright (c) Steve Scherf et al.
# Submitted via: Collectorz.com_Music_Collector 6.9
#
DISCID=e711c611
DTITLE=Stringbean And The Stalkers - Live at Ragin Cajun
DYEAR=2004
DGENRE=Blues
TTITLE0=Toni's Steppin' Out
TTITLE1=I'm Gonna Keep What I Got
TTITLE2=Boogie Thing
TTITLE3=Crawling King Snake
TTITLE4=Blue Yodel 9
TTITLE5=Walking by Myself
TTITLE6=It's Alright
TTITLE7=She's 19 Years Old
TTITLE8=I Wish You Would
TTITLE9=Walking Thru the Park
TTITLE10=Two Trains Running
TTITLE11=Greasy Gravy
TTITLE12=Double Trouble
TTITLE13=1-2-99
TTITLE14=Room to Move
TTITLE15=Band Introduction...
TTITLE16=A Nice Way of Closing
EXTD=
EXTT0=
EXTT1=
EXTT2=
EXTT3=
EXTT4=
EXTT5=
EXTT6=
EXTT7=
EXTT8=
EXTT9=
EXTT10=
EXTT11=
EXTT12=
EXTT13=
EXTT14=
EXTT15=
EXTT16=
PLAYORDER=
